<svg width="1243" height="730" viewBox="0 0 1243 730" fill="none" xmlns="http://www.w3.org/2000/svg">
<path d="M2 220.609L1242 220.609" stroke="#D1DCDF" stroke-width="0.75" stroke-linecap="round"/>
<path d="M2 352.217L1242 352.217" stroke="#D1DCDF" stroke-width="0.75" stroke-linecap="round"/>
<path d="M2 483.826L1242 483.826" stroke="#D1DCDF" stroke-width="0.75" stroke-linecap="round"/>
<path d="M2 615.435L1242 615.435" stroke="#D1DCDF" stroke-width="0.75" stroke-linecap="round"/>
<path d="M1184.34 450.643C1207.24 422.662 1228.24 415.667 1235.87 415.667V729.307H2.03833V112.538C56.4299 106.709 93.6453 275.762 113.684 334.055C141.739 415.667 199.566 444.814 228.193 415.667C279.403 363.527 336.976 217.467 399.956 217.467C462.936 217.467 501.624 370.032 525.915 386.52C568.856 415.667 614.66 328.226 649.012 386.52C683.365 444.814 729.168 526.425 772.109 526.425C815.05 526.425 826.501 415.667 880.892 415.667C935.284 415.667 966.774 686.746 995.401 704.234C1024.03 721.722 1058.38 526.425 1089.87 526.425C1121.36 526.425 1155.71 485.619 1184.34 450.643Z" fill="url(#paint0_linear)"/>
<path d="M1235.87 415.667C1228.24 415.667 1207.24 422.662 1184.34 450.643C1155.71 485.62 1121.36 526.425 1089.87 526.425C1058.38 526.425 1024.03 721.722 995.401 704.234C966.774 686.746 935.284 415.667 880.892 415.667C826.501 415.667 815.05 526.425 772.109 526.425C729.168 526.425 683.365 444.814 649.012 386.52C614.66 328.226 568.856 415.667 525.915 386.52C501.624 370.032 462.936 217.467 399.956 217.467C336.976 217.467 279.403 363.527 228.193 415.667C199.566 444.814 141.739 415.667 113.684 334.055C93.6452 275.762 56.4299 106.709 2.03828 112.538" stroke="#F4406B" stroke-width="3" stroke-linecap="round"/>
<rect x="2" width="277" height="48" rx="24" fill="#D1DCDF" fill-opacity="0.48"/>
<rect x="1194" y="12" width="48" height="24" rx="12" fill="#D1DCDF" fill-opacity="0.48"/>
<rect x="1122" y="12" width="48" height="24" rx="12" fill="#D1DCDF" fill-opacity="0.48"/>
<rect x="1050" y="12" width="48" height="24" rx="12" fill="#D1DCDF" fill-opacity="0.48"/>
<defs>
<linearGradient id="paint0_linear" x1="618.954" y1="112.391" x2="619.111" y2="727.744" gradientUnits="userSpaceOnUse">
<stop stop-color="#F4406B" stop-opacity="0.64"/>
<stop offset="1" stop-color="#F4406B" stop-opacity="0"/>
</linearGradient>
</defs>
</svg>
