<svg width="107" height="48" viewBox="0 0 107 48" fill="none" xmlns="http://www.w3.org/2000/svg">
<path d="M47.3711 27.5234C47.3711 26.8594 47.1367 26.3516 46.668 26C46.1992 25.6406 45.3555 25.2656 44.1367 24.875C42.918 24.4766 41.9531 24.0859 41.2422 23.7031C39.3047 22.6562 38.3359 21.2461 38.3359 19.4727C38.3359 18.5508 38.5938 17.7305 39.1094 17.0117C39.6328 16.2852 40.3789 15.7188 41.3477 15.3125C42.3242 14.9062 43.418 14.7031 44.6289 14.7031C45.8477 14.7031 46.9336 14.9258 47.8867 15.3711C48.8398 15.8086 49.5781 16.4297 50.1016 17.2344C50.6328 18.0391 50.8984 18.9531 50.8984 19.9766H47.3828C47.3828 19.1953 47.1367 18.5898 46.6445 18.1602C46.1523 17.7227 45.4609 17.5039 44.5703 17.5039C43.7109 17.5039 43.043 17.6875 42.5664 18.0547C42.0898 18.4141 41.8516 18.8906 41.8516 19.4844C41.8516 20.0391 42.1289 20.5039 42.6836 20.8789C43.2461 21.2539 44.0703 21.6055 45.1562 21.9336C47.1562 22.5352 48.6133 23.2812 49.5273 24.1719C50.4414 25.0625 50.8984 26.1719 50.8984 27.5C50.8984 28.9766 50.3398 30.1367 49.2227 30.9805C48.1055 31.8164 46.6016 32.2344 44.7109 32.2344C43.3984 32.2344 42.2031 31.9961 41.125 31.5195C40.0469 31.0352 39.2227 30.375 38.6523 29.5391C38.0898 28.7031 37.8086 27.7344 37.8086 26.6328H41.3359C41.3359 28.5156 42.4609 29.457 44.7109 29.457C45.5469 29.457 46.1992 29.2891 46.668 28.9531C47.1367 28.6094 47.3711 28.1328 47.3711 27.5234ZM56.3711 20.7031C57.2695 19.625 58.3984 19.0859 59.7578 19.0859C62.5078 19.0859 63.9023 20.6836 63.9414 23.8789V32H60.5547V23.9727C60.5547 23.2461 60.3984 22.7109 60.0859 22.3672C59.7734 22.0156 59.2539 21.8398 58.5273 21.8398C57.5352 21.8398 56.8164 22.2227 56.3711 22.9883V32H52.9844V14H56.3711V20.7031ZM70.0703 32H66.6719V19.3203H70.0703V32ZM66.4727 16.0391C66.4727 15.5312 66.6406 15.1133 66.9766 14.7852C67.3203 14.457 67.7852 14.293 68.3711 14.293C68.9492 14.293 69.4102 14.457 69.7539 14.7852C70.0977 15.1133 70.2695 15.5312 70.2695 16.0391C70.2695 16.5547 70.0938 16.9766 69.7422 17.3047C69.3984 17.6328 68.9414 17.7969 68.3711 17.7969C67.8008 17.7969 67.3398 17.6328 66.9883 17.3047C66.6445 16.9766 66.4727 16.5547 66.4727 16.0391ZM73.7969 32V21.8047H71.9102V19.3203H73.7969V18.2422C73.7969 16.8203 74.2031 15.7188 75.0156 14.9375C75.8359 14.1484 76.9805 13.7539 78.4492 13.7539C78.918 13.7539 79.4922 13.832 80.1719 13.9883L80.1367 16.6133C79.8555 16.543 79.5117 16.5078 79.1055 16.5078C77.832 16.5078 77.1953 17.1055 77.1953 18.3008V19.3203H79.7148V21.8047H77.1953V32H73.7969ZM85.5273 16.2031V19.3203H87.6953V21.8047H85.5273V28.1328C85.5273 28.6016 85.6172 28.9375 85.7969 29.1406C85.9766 29.3438 86.3203 29.4453 86.8281 29.4453C87.2031 29.4453 87.5352 29.418 87.8242 29.3633V31.9297C87.1602 32.1328 86.4766 32.2344 85.7734 32.2344C83.3984 32.2344 82.1875 31.0352 82.1406 28.6367V21.8047H80.2891V19.3203H82.1406V16.2031H85.5273ZM93.1562 32H89.7578V14H93.1562V32ZM100.691 27.207L103.035 19.3203H106.668L101.57 33.9688L101.289 34.6367C100.531 36.293 99.2812 37.1211 97.5391 37.1211C97.0469 37.1211 96.5469 37.0469 96.0391 36.8984V34.332L96.5547 34.3438C97.1953 34.3438 97.6719 34.2461 97.9844 34.0508C98.3047 33.8555 98.5547 33.5312 98.7344 33.0781L99.1328 32.0352L94.6914 19.3203H98.3359L100.691 27.207Z" fill="white"/>
<path fill-rule="evenodd" clip-rule="evenodd" d="M6.61715 6C5.89944 6 5.23675 6.38457 4.88066 7.00772L0.263515 15.0877C-0.0878379 15.7026 -0.0878384 16.4574 0.263514 17.0723L3.72002 23.1212C4.48781 24.4648 6.4252 24.4648 7.19299 23.1212L10.6407 17.0877C10.9968 16.4646 11.6594 16.08 12.3772 16.08H19.2902C20.8258 16.08 21.7886 14.421 21.0267 13.0877L17.5524 7.00772C17.1963 6.38457 16.5336 6 15.8159 6H6.61715Z" fill="white"/>
<path d="M10.6963 17L16.1963 6C16.9963 6 17.5296 6.66667 17.6963 7C17.6963 7 21.1963 11.5 21.6963 13C22.1963 14.5 21.1963 16.5 19.6963 16.5H12.1963C11.3963 16.5 10.863 16.6667 10.6963 17Z" fill="#D1DCDF"/>
<path fill-rule="evenodd" clip-rule="evenodd" d="M24.8029 25.0077C24.0351 23.6641 22.0977 23.6641 21.33 25.0077L17.8823 31.0411C17.5262 31.6643 16.8635 32.0489 16.1458 32.0489L9.23277 32.0489C7.69712 32.0489 6.73439 33.7078 7.49629 35.0412L10.9706 41.1212C11.3267 41.7443 11.9894 42.1289 12.7071 42.1289H21.9058C22.6235 42.1289 23.2862 41.7443 23.6423 41.1212L28.2594 33.0411C28.6108 32.4263 28.6108 31.6714 28.2594 31.0566L24.8029 25.0077Z" fill="white"/>
<path d="M17.8262 31.1289L12.3262 42.1289C11.5262 42.1289 10.9928 41.4622 10.8262 41.1289C10.8262 41.1289 7.32617 36.6289 6.82617 35.1289C6.32617 33.6289 7.32617 31.6289 8.82617 31.6289H16.3262C17.1262 31.6289 17.6595 31.4622 17.8262 31.1289Z" fill="#D1DCDF"/>
<g filter="url(#filter0_d)">
<path d="M16.3765 23.84C16.3765 24.9446 15.481 25.84 14.3765 25.84C13.2719 25.84 12.3765 24.9446 12.3765 23.84C12.3765 22.7354 13.2719 21.84 14.3765 21.84C15.481 21.84 16.3765 22.7354 16.3765 23.84Z" fill="white"/>
</g>
<defs>
<filter id="filter0_d" x="9.37646" y="18.84" width="12" height="12" filterUnits="userSpaceOnUse" color-interpolation-filters="sRGB">
<feFlood flood-opacity="0" result="BackgroundImageFix"/>
<feColorMatrix in="SourceAlpha" type="matrix" values="0 0 0 0 0 0 0 0 0 0 0 0 0 0 0 0 0 0 127 0"/>
<feOffset dx="1" dy="1"/>
<feGaussianBlur stdDeviation="2"/>
<feColorMatrix type="matrix" values="0 0 0 0 0 0 0 0 0 0 0 0 0 0 0 0 0 0 0.16 0"/>
<feBlend mode="normal" in2="BackgroundImageFix" result="effect1_dropShadow"/>
<feBlend mode="normal" in="SourceGraphic" in2="effect1_dropShadow" result="shape"/>
</filter>
</defs>
</svg>
