<?xml version="1.0" standalone="no"?>
<!DOCTYPE svg PUBLIC "-//W3C//DTD SVG 20010904//EN"
 "http://www.w3.org/TR/2001/REC-SVG-20010904/DTD/svg10.dtd">
<svg version="1.0" xmlns="http://www.w3.org/2000/svg"
 width="384.000000pt" height="384.000000pt" viewBox="0 0 384.000000 384.000000"
 preserveAspectRatio="xMidYMid meet">
<metadata>
Created by potrace 1.11, written by Peter Selinger 2001-2013
</metadata>
<g transform="translate(0.000000,384.000000) scale(0.100000,-0.100000)"
fill="#000000" stroke="none">
<path d="M0 1920 l0 -1920 1920 0 1920 0 0 1920 0 1920 -1920 0 -1920 0 0
-1920z m2195 1423 c60 -29 378 -425 431 -538 37 -79 27 -155 -31 -231 -56 -73
-61 -74 -506 -74 -254 0 -407 -4 -427 -11 -26 -9 -56 -55 -232 -365 -112 -195
-206 -354 -211 -354 -5 0 -20 17 -33 38 -39 60 -426 741 -426 749 0 4 102 187
227 405 l227 398 473 0 c422 0 476 -2 508 -17z m-198 -1263 c48 -21 79 -64 88
-122 5 -30 1 -49 -17 -85 -31 -62 -65 -85 -130 -90 -151 -11 -228 170 -116
274 49 46 108 54 175 23z m823 -341 c102 -178 202 -354 222 -390 l37 -66 -228
-399 -228 -399 -468 -3 c-449 -2 -470 -1 -509 18 -42 20 -156 150 -311 356
-120 158 -140 198 -140 274 0 80 34 146 97 188 l41 27 421 5 c293 3 427 9 441
17 11 6 94 141 184 300 232 406 231 405 244 400 7 -2 95 -149 197 -328z"/>
</g>
</svg>
