<svg width="972" height="288" viewBox="0 0 972 288" fill="none" xmlns="http://www.w3.org/2000/svg">
<path d="M407.005 168.086L424.231 77.0312H450.51L422.122 205H395.579L374.749 119.395L353.919 205H327.376L298.987 77.0312H325.266L342.581 167.91L363.674 77.0312H385.999L407.005 168.086ZM504.124 206.758C490.178 206.758 478.811 202.48 470.022 193.926C461.292 185.371 456.926 173.975 456.926 159.736V157.275C456.926 147.725 458.772 139.199 462.464 131.699C466.155 124.141 471.37 118.34 478.108 114.297C484.905 110.195 492.639 108.145 501.311 108.145C514.319 108.145 524.544 112.246 531.985 120.449C539.485 128.652 543.235 140.283 543.235 155.342V165.713H482.678C483.499 171.924 485.96 176.904 490.061 180.654C494.221 184.404 499.465 186.279 505.794 186.279C515.579 186.279 523.225 182.734 528.733 175.645L541.214 189.619C537.405 195.01 532.249 199.229 525.745 202.275C519.241 205.264 512.034 206.758 504.124 206.758ZM501.223 128.711C496.184 128.711 492.083 130.41 488.919 133.809C485.813 137.207 483.821 142.07 482.942 148.398H518.274V146.377C518.157 140.752 516.633 136.416 513.704 133.369C510.774 130.264 506.614 128.711 501.223 128.711ZM609.241 178.721C609.241 175.615 607.688 173.184 604.583 171.426C601.536 169.609 596.614 167.998 589.817 166.592C567.2 161.846 555.891 152.236 555.891 137.764C555.891 129.326 559.378 122.295 566.35 116.67C573.381 110.986 582.551 108.145 593.86 108.145C605.93 108.145 615.569 110.986 622.776 116.67C630.042 122.354 633.674 129.736 633.674 138.818H608.274C608.274 135.186 607.102 132.197 604.758 129.854C602.415 127.451 598.753 126.25 593.772 126.25C589.495 126.25 586.184 127.217 583.84 129.15C581.497 131.084 580.325 133.545 580.325 136.533C580.325 139.346 581.643 141.631 584.28 143.389C586.975 145.088 591.487 146.582 597.815 147.871C604.143 149.102 609.475 150.508 613.811 152.09C627.229 157.012 633.938 165.537 633.938 177.666C633.938 186.338 630.217 193.369 622.776 198.76C615.335 204.092 605.725 206.758 593.948 206.758C585.979 206.758 578.889 205.352 572.678 202.539C566.526 199.668 561.692 195.771 558.176 190.85C554.661 185.869 552.903 180.508 552.903 174.766H576.985C577.219 179.277 578.889 182.734 581.995 185.137C585.1 187.539 589.26 188.74 594.475 188.74C599.339 188.74 603.001 187.832 605.462 186.016C607.981 184.141 609.241 181.709 609.241 178.721ZM733.079 170.459L745.559 109.902H770.081L745.823 205H724.553L706.536 145.146L688.518 205H667.337L643.079 109.902H667.6L679.993 170.371L697.395 109.902H715.764L733.079 170.459ZM837.844 205C836.672 202.715 835.823 199.873 835.296 196.475C829.143 203.33 821.145 206.758 811.301 206.758C801.985 206.758 794.251 204.062 788.098 198.672C782.005 193.281 778.958 186.484 778.958 178.281C778.958 168.203 782.678 160.469 790.12 155.078C797.62 149.688 808.43 146.963 822.551 146.904H834.241V141.455C834.241 137.061 833.098 133.545 830.813 130.908C828.587 128.271 825.042 126.953 820.178 126.953C815.901 126.953 812.532 127.979 810.071 130.029C807.669 132.08 806.467 134.893 806.467 138.467H781.067C781.067 132.959 782.766 127.861 786.165 123.174C789.563 118.486 794.368 114.824 800.579 112.188C806.79 109.492 813.762 108.145 821.497 108.145C833.215 108.145 842.503 111.104 849.358 117.021C856.272 122.881 859.729 131.143 859.729 141.807V183.027C859.788 192.051 861.047 198.877 863.508 203.506V205H837.844ZM816.839 187.334C820.589 187.334 824.046 186.514 827.21 184.873C830.374 183.174 832.717 180.918 834.241 178.105V161.758H824.749C812.034 161.758 805.266 166.152 804.446 174.941L804.358 176.436C804.358 179.6 805.471 182.207 807.698 184.258C809.924 186.309 812.971 187.334 816.839 187.334ZM964.846 158.33C964.846 172.979 961.506 184.727 954.827 193.574C948.206 202.363 939.241 206.758 927.932 206.758C918.323 206.758 910.559 203.418 904.641 196.738V241.562H879.241V109.902H902.796L903.674 119.219C909.827 111.836 917.854 108.145 927.756 108.145C939.475 108.145 948.587 112.48 955.09 121.152C961.594 129.824 964.846 141.777 964.846 157.012V158.33ZM939.446 156.484C939.446 147.637 937.864 140.811 934.7 136.006C931.594 131.201 927.053 128.799 921.077 128.799C913.108 128.799 907.63 131.846 904.641 137.939V176.875C907.747 183.145 913.284 186.279 921.253 186.279C933.381 186.279 939.446 176.348 939.446 156.484Z" fill="white"/>
<path fill-rule="evenodd" clip-rule="evenodd" d="M46.7728 0C46.0551 0 45.3924 0.384572 45.0363 1.00772L0.263514 79.3601C-0.087838 79.9749 -0.0878379 80.7298 0.263514 81.3446L43.8757 157.666C44.6434 159.009 46.5808 159.009 47.3486 157.666L90.9518 81.3601C91.3079 80.7369 91.9706 80.3524 92.6883 80.3524H179.913C181.449 80.3524 182.411 78.6934 181.649 77.3601L138.019 1.00772C137.663 0.384572 137.001 0 136.283 0H46.7728Z" fill="white"/>
<path d="M85.9108 90L136.809 0C144.212 0 149.148 5.45455 150.69 8.18182C150.69 8.18182 183.08 45 187.707 57.2727C192.334 69.5455 183.08 85.9091 169.199 85.9091H99.7921C92.3887 85.9091 87.4531 87.2727 85.9108 90Z" fill="#D1DCDF"/>
<path fill-rule="evenodd" clip-rule="evenodd" d="M187.729 130.334C186.961 128.991 185.023 128.991 184.256 130.334L140.652 206.64C140.296 207.263 139.634 207.648 138.916 207.648L51.6908 207.648C50.1552 207.648 49.1925 209.307 49.9544 210.64L93.5844 286.992C93.9405 287.615 94.6032 288 95.3209 288H184.831C185.549 288 186.212 287.615 186.568 286.992L231.341 208.64C231.692 208.025 231.692 207.27 231.341 206.655L187.729 130.334Z" fill="white"/>
<path d="M145.911 197L95.0125 288C87.6092 288 82.6736 282.485 81.1312 279.727C81.1312 279.727 48.7415 242.5 44.1144 230.091C39.4873 217.682 48.7415 201.136 62.6228 201.136H132.029C139.433 201.136 144.368 199.758 145.911 197Z" fill="#D1DCDF"/>
<g filter="url(#filter0_d)">
<path d="M132.662 142.211C132.662 151.016 125.524 158.154 116.719 158.154C107.914 158.154 100.776 151.016 100.776 142.211C100.776 133.406 107.914 126.268 116.719 126.268C125.524 126.268 132.662 133.406 132.662 142.211Z" fill="white"/>
</g>
<defs>
<filter id="filter0_d" x="97.776" y="123.268" width="39.8859" height="39.8859" filterUnits="userSpaceOnUse" color-interpolation-filters="sRGB">
<feFlood flood-opacity="0" result="BackgroundImageFix"/>
<feColorMatrix in="SourceAlpha" type="matrix" values="0 0 0 0 0 0 0 0 0 0 0 0 0 0 0 0 0 0 127 0"/>
<feOffset dx="1" dy="1"/>
<feGaussianBlur stdDeviation="2"/>
<feColorMatrix type="matrix" values="0 0 0 0 0 0 0 0 0 0 0 0 0 0 0 0 0 0 0.16 0"/>
<feBlend mode="normal" in2="BackgroundImageFix" result="effect1_dropShadow"/>
<feBlend mode="normal" in="SourceGraphic" in2="effect1_dropShadow" result="shape"/>
</filter>
</defs>
</svg>
